<?xml version="1.0" encoding="UTF-8" standalone="no"?>
<svg
   width="24"
   height="24"
   viewBox="0 0 24 24"
   fill="none"
   stroke="currentColor"
   stroke-width="2"
   stroke-linecap="round"
   stroke-linejoin="round"
   class="lucide lucide-bug"
   version="1.1"
   id="svg24"
   sodipodi:docname="bug.svg"
   inkscape:version="1.2.2 (732a01da63, 2022-12-09)"
   xmlns:inkscape="http://www.inkscape.org/namespaces/inkscape"
   xmlns:sodipodi="http://sodipodi.sourceforge.net/DTD/sodipodi-0.dtd"
   xmlns="http://www.w3.org/2000/svg"
   xmlns:svg="http://www.w3.org/2000/svg">
  <defs
     id="defs28" />
  <sodipodi:namedview
     id="namedview26"
     pagecolor="#ffffff"
     bordercolor="#000000"
     borderopacity="0.25"
     inkscape:showpageshadow="2"
     inkscape:pageopacity="0.0"
     inkscape:pagecheckerboard="0"
     inkscape:deskcolor="#d1d1d1"
     showgrid="false"
     inkscape:zoom="34.541667"
     inkscape:cx="9.8721351"
     inkscape:cy="12.014475"
     inkscape:window-width="1920"
     inkscape:window-height="1009"
     inkscape:window-x="-8"
     inkscape:window-y="-8"
     inkscape:window-maximized="1"
     inkscape:current-layer="svg24" />
  <path
     d="m8 2 1.88 1.88"
     id="path2"
     style="stroke:#dbdbdb;stroke-opacity:1" />
  <path
     d="M14.12 3.88 16 2"
     id="path4"
     style="stroke:#dbdbdb;stroke-opacity:1" />
  <path
     d="M9 7.13v-1a3.003 3.003 0 1 1 6 0v1"
     id="path6"
     style="stroke:#dbdbdb;stroke-opacity:1" />
  <path
     d="M12 20c-3.3 0-6-2.7-6-6v-3a4 4 0 0 1 4-4h4a4 4 0 0 1 4 4v3c0 3.3-2.7 6-6 6"
     id="path8"
     style="stroke:#dbdbdb;stroke-opacity:1" />
  <path
     d="M12 20v-9"
     id="path10"
     style="stroke:#dbdbdb;stroke-opacity:1" />
  <path
     d="M6.53 9C4.6 8.8 3 7.1 3 5"
     id="path12"
     style="stroke:#dbdbdb;stroke-opacity:1" />
  <path
     d="M6 13H2"
     id="path14"
     style="stroke:#dbdbdb;stroke-opacity:1" />
  <path
     d="M3 21c0-2.1 1.7-3.9 3.8-4"
     id="path16"
     style="stroke:#dbdbdb;stroke-opacity:1" />
  <path
     d="M20.97 5c0 2.1-1.6 3.8-3.5 4"
     id="path18"
     style="stroke:#dbdbdb;stroke-opacity:1" />
  <path
     d="M22 13h-4"
     id="path20"
     style="stroke:#dbdbdb;stroke-opacity:1" />
  <path
     d="M17.2 17c2.1.1 3.8 1.9 3.8 4"
     id="path22"
     style="stroke:#dbdbdb;stroke-opacity:1" />
</svg>
